G04*
G04 #@! TF.GenerationSoftware,Altium Limited,Altium Designer,18.0.7 (293)*
G04*
G04 Layer_Color=16711935*
%FSLAX44Y44*%
%MOMM*%
G71*
G01*
G75*
%ADD10C,0.1000*%
%ADD11C,0.2000*%
D10*
X498710Y-99220D02*
G03*
X498710Y-99220I-25000J0D01*
G01*
X281540Y-96680D02*
G03*
X281540Y-96680I-25000J0D01*
G01*
X534870Y-115990D02*
X559870D01*
X534870D02*
Y-79990D01*
X559870D01*
Y-115990D02*
Y-79990D01*
X313890Y-115590D02*
X338890D01*
X313890D02*
Y-79590D01*
X338890D01*
Y-115590D02*
Y-79590D01*
X193040Y-84860D02*
Y-54860D01*
Y-149860D02*
Y-119860D01*
X185540Y-112360D02*
X193040Y-119860D01*
X185540D02*
X200540D01*
Y-84860D01*
X185540D02*
X200540D01*
X185540Y-119860D02*
Y-84860D01*
X371890Y-140110D02*
X384640Y-152860D01*
X371890D02*
X417890D01*
Y-48860D01*
X371890D02*
X417890D01*
X371890Y-152860D02*
Y-48860D01*
D11*
X599960Y-128030D02*
X664960D01*
Y-72630D01*
X599960D02*
X664960D01*
X599960Y-128030D02*
Y-72630D01*
X86880Y-71360D02*
X151880D01*
X86880Y-126760D02*
Y-71360D01*
Y-126760D02*
X151880D01*
Y-71360D01*
M02*
