G04*
G04 #@! TF.GenerationSoftware,Altium Limited,Altium Designer,18.0.7 (293)*
G04*
G04 Layer_Color=65535*
%FSLAX44Y44*%
%MOMM*%
G71*
G01*
G75*
%ADD10C,0.1000*%
%ADD11C,0.2000*%
%ADD12C,0.2540*%
D10*
X528370Y-110490D02*
G03*
X529370Y-110490I500J0D01*
G01*
D02*
G03*
X528370Y-110490I-500J0D01*
G01*
X307390Y-110090D02*
G03*
X308390Y-110090I500J0D01*
G01*
D02*
G03*
X307390Y-110090I-500J0D01*
G01*
X599960Y-128030D02*
X664960D01*
Y-72630D01*
X599960D02*
X664960D01*
X599960Y-128030D02*
Y-72630D01*
X86880Y-71360D02*
X151880D01*
X86880Y-126760D02*
Y-71360D01*
Y-126760D02*
X151880D01*
Y-71360D01*
D11*
X498710Y-99220D02*
G03*
X498710Y-99220I-25000J0D01*
G01*
X281540Y-96680D02*
G03*
X281540Y-96680I-25000J0D01*
G01*
X534870Y-115990D02*
X537370D01*
X534870D02*
Y-79990D01*
X537370D01*
X557370D02*
X559870D01*
Y-115990D02*
Y-79990D01*
X557370Y-115990D02*
X559870D01*
X313890Y-115590D02*
X316390D01*
X313890D02*
Y-79590D01*
X316390D01*
X336390D02*
X338890D01*
Y-115590D02*
Y-79590D01*
X336390Y-115590D02*
X338890D01*
X193040Y-84860D02*
Y-64360D01*
Y-140360D02*
Y-119860D01*
X185540Y-112360D02*
X193040Y-119860D01*
X185540D02*
X200540D01*
Y-84860D01*
X185540D02*
X200540D01*
X185540Y-119860D02*
Y-84860D01*
X371890Y-152860D02*
X402590D01*
X371890D02*
Y-48860D01*
X417890D01*
D12*
X691306Y-80859D02*
X689613Y-82552D01*
Y-85937D01*
X691306Y-87630D01*
X698077D01*
X699770Y-85937D01*
Y-82552D01*
X698077Y-80859D01*
X694692D01*
Y-84244D01*
X699770Y-77473D02*
X689613D01*
X699770Y-70702D01*
X689613D01*
Y-67317D02*
X699770D01*
Y-62238D01*
X698077Y-60545D01*
X691306D01*
X689613Y-62238D01*
Y-67317D01*
X690883Y-120229D02*
Y-127000D01*
X695962D01*
X694269Y-123614D01*
Y-121922D01*
X695962Y-120229D01*
X699347D01*
X701040Y-121922D01*
Y-125307D01*
X699347Y-127000D01*
X690883Y-116843D02*
X697654D01*
X701040Y-113458D01*
X697654Y-110072D01*
X690883D01*
X64767Y-113030D02*
X57996D01*
X54610Y-116416D01*
X57996Y-119801D01*
X64767D01*
X63074Y-129958D02*
X64767Y-128265D01*
Y-124880D01*
X63074Y-123187D01*
X56303D01*
X54610Y-124880D01*
Y-128265D01*
X56303Y-129958D01*
X63074Y-140115D02*
X64767Y-138422D01*
Y-135036D01*
X63074Y-133343D01*
X56303D01*
X54610Y-135036D01*
Y-138422D01*
X56303Y-140115D01*
X63074Y-67731D02*
X64767Y-66038D01*
Y-62653D01*
X63074Y-60960D01*
X56303D01*
X54610Y-62653D01*
Y-66038D01*
X56303Y-67731D01*
X59688D01*
Y-64346D01*
X54610Y-71117D02*
X64767D01*
X54610Y-77888D01*
X64767D01*
Y-81273D02*
X54610D01*
Y-86352D01*
X56303Y-88045D01*
X63074D01*
X64767Y-86352D01*
Y-81273D01*
X630341Y-44453D02*
X626956D01*
X628648D01*
Y-52917D01*
X626956Y-54610D01*
X625263D01*
X623570Y-52917D01*
X640498Y-54610D02*
X633727D01*
X640498Y-47839D01*
Y-46146D01*
X638805Y-44453D01*
X635420D01*
X633727Y-46146D01*
X118531Y-36833D02*
X115146D01*
X116838D01*
Y-45297D01*
X115146Y-46990D01*
X113453D01*
X111760Y-45297D01*
X121917Y-46990D02*
X125302D01*
X123610D01*
Y-36833D01*
X121917Y-38526D01*
X382270Y-26673D02*
X385656D01*
X383963D01*
Y-36830D01*
X382270D01*
X385656D01*
X397505Y-28366D02*
X395812Y-26673D01*
X392427D01*
X390734Y-28366D01*
Y-35137D01*
X392427Y-36830D01*
X395812D01*
X397505Y-35137D01*
X400891Y-36830D02*
X404276D01*
X402583D01*
Y-26673D01*
X400891Y-28366D01*
X187960Y-24133D02*
Y-34290D01*
X193038D01*
X194731Y-32597D01*
Y-25826D01*
X193038Y-24133D01*
X187960D01*
X198117Y-34290D02*
X201502D01*
X199809D01*
Y-24133D01*
X198117Y-25826D01*
X546521Y-46146D02*
X544828Y-44453D01*
X541443D01*
X539750Y-46146D01*
Y-52917D01*
X541443Y-54610D01*
X544828D01*
X546521Y-52917D01*
X554985Y-54610D02*
Y-44453D01*
X549907Y-49532D01*
X556678D01*
X470321Y-44876D02*
X468628Y-43183D01*
X465243D01*
X463550Y-44876D01*
Y-51647D01*
X465243Y-53340D01*
X468628D01*
X470321Y-51647D01*
X473707Y-44876D02*
X475400Y-43183D01*
X478785D01*
X480478Y-44876D01*
Y-46569D01*
X478785Y-48262D01*
X477092D01*
X478785D01*
X480478Y-49954D01*
Y-51647D01*
X478785Y-53340D01*
X475400D01*
X473707Y-51647D01*
X324271Y-46146D02*
X322578Y-44453D01*
X319193D01*
X317500Y-46146D01*
Y-52917D01*
X319193Y-54610D01*
X322578D01*
X324271Y-52917D01*
X334428Y-54610D02*
X327657D01*
X334428Y-47839D01*
Y-46146D01*
X332735Y-44453D01*
X329350D01*
X327657Y-46146D01*
X259501D02*
X257808Y-44453D01*
X254423D01*
X252730Y-46146D01*
Y-52917D01*
X254423Y-54610D01*
X257808D01*
X259501Y-52917D01*
X262887Y-54610D02*
X266272D01*
X264580D01*
Y-44453D01*
X262887Y-46146D01*
M02*
